<svg width="22" height="18" viewBox="0 0 22 18" fill="none" xmlns="http://www.w3.org/2000/svg">
<path d="M1.25 12.7661L6.40901 7.6071C7.28769 6.72842 8.71231 6.72842 9.59099 7.6071L14.75 12.7661M13.25 11.2661L14.659 9.8571C15.5377 8.97842 16.9623 8.97842 17.841 9.8571L20.75 12.7661M2.75 16.5161H19.25C20.0784 16.5161 20.75 15.8445 20.75 15.0161V3.01611C20.75 2.18769 20.0784 1.51611 19.25 1.51611H2.75C1.92157 1.51611 1.25 2.18769 1.25 3.01611V15.0161C1.25 15.8445 1.92157 16.5161 2.75 16.5161ZM13.25 5.26611H13.2575V5.27361H13.25V5.26611ZM13.625 5.26611C13.625 5.47322 13.4571 5.64111 13.25 5.64111C13.0429 5.64111 12.875 5.47322 12.875 5.26611C12.875 5.05901 13.0429 4.89111 13.25 4.89111C13.4571 4.89111 13.625 5.05901 13.625 5.26611Z" stroke="#66615E" stroke-width="1.5" stroke-linecap="round" stroke-linejoin="round"/>
</svg>
