<svg width="20" height="21" viewBox="0 0 20 21" fill="none" xmlns="http://www.w3.org/2000/svg">
<path fill-rule="evenodd" clip-rule="evenodd" d="M9 3.5116C5.96243 3.5116 3.5 5.97403 3.5 9.0116C3.5 12.0492 5.96243 14.5116 9 14.5116C10.519 14.5116 11.893 13.8968 12.8891 12.9007C13.8852 11.9046 14.5 10.5306 14.5 9.0116C14.5 5.97403 12.0376 3.5116 9 3.5116ZM2 9.0116C2 5.1456 5.13401 2.0116 9 2.0116C12.866 2.0116 16 5.1456 16 9.0116C16 10.6741 15.4197 12.2022 14.4517 13.4027L17.7803 16.7313C18.0732 17.0242 18.0732 17.499 17.7803 17.7919C17.4874 18.0848 17.0126 18.0848 16.7197 17.7919L13.3911 14.4633C12.1906 15.4313 10.6625 16.0116 9 16.0116C5.13401 16.0116 2 12.8776 2 9.0116Z" fill="#66615e"/>
</svg>
