<svg width="24" height="24" viewBox="0 0 24 24" fill="none" xmlns="http://www.w3.org/2000/svg">
<path d="M19.5 22.5023C21.1569 22.5023 22.5 21.1591 22.5 19.5023V11.3285L15.6212 15.3504L19.1056 17.2266C19.4703 17.423 19.6067 17.8778 19.4104 18.2425C19.214 18.6072 18.7591 18.7437 18.3944 18.5473L12.7112 15.4871C12.2672 15.248 11.7328 15.248 11.2889 15.4871L5.60558 18.5473C5.24087 18.7437 4.78603 18.6072 4.58965 18.2425C4.39327 17.8778 4.52972 17.423 4.89442 17.2266L8.37878 15.3504L1.5 11.3285V19.5023C1.5 21.1591 2.84315 22.5023 4.5 22.5023L19.5 22.5023Z" fill="#878889"/>
<path d="M1.5 9.59093V8.8462C1.5 7.74255 2.10597 6.72803 3.0777 6.20479L10.5777 2.16633C11.4656 1.68821 12.5344 1.68821 13.4223 2.16633L20.9223 6.20479C21.894 6.72803 22.5 7.74256 22.5 8.8462V9.59093L14.0742 14.5174L13.4223 14.1664C12.5344 13.6882 11.4656 13.6882 10.5777 14.1664L9.92585 14.5174L1.5 9.59093Z" fill="#878889"/>
</svg>
